<?xml version="1.0" encoding="utf-8"?>
<svg xmlns="http://www.w3.org/2000/svg"
     viewBox="0 0 1080 1350"
     width="1080"
     height="1350">

  <defs>
    <linearGradient id="gradOrizzontale1"
                    gradientUnits="userSpaceOnUse"
                    x1="0" y1="0"
                    x2="540" y2="0">
      <stop offset="0%" stop-color="#005DAA"/>
      <stop offset="50%" stop-color="#005DAA"/>
      <stop offset="65%" stop-color="#4186BF"/>
      <stop offset="75%" stop-color="#78A9D2"/>
      <stop offset="85%" stop-color="#AECBE4"/>
      <stop offset="100%" stop-color="#FFFFFF"/>
    </linearGradient>

    <linearGradient id="gradVerticale"
                    gradientUnits="userSpaceOnUse"
                    x1="0" y1="681"
                    x2="0" y2="1350">
      <stop offset="0%" stop-color="#F4FCFE"/>
      <stop offset="25%" stop-color="#01B4E7"/>
      <stop offset="75%" stop-color="#01B4E7"/>
      <stop offset="85%" stop-color="#04A6DC"/>
      <stop offset="100%" stop-color="#13579D"/>
    </linearGradient>

    <linearGradient id="gradOrizzontale2"
                    gradientUnits="userSpaceOnUse"
                    x1="0" y1="0"
                    x2="679" y2="0">
      <stop offset="0%" stop-color="#17458F"/>
      <stop offset="62.5%" stop-color="#17458F"/>
      <stop offset="75%" stop-color="#4268A4"/>
      <stop offset="85%" stop-color="#8FA5C9"/>
      <stop offset="100%" stop-color="#FFFFFF"/>
    </linearGradient>
  </defs>

  <!-- CORNICE BIANCA -->
  <path
    d="M0 0H1080V1350H0Z
       M50 50V1300H1030V50Z"
    fill="#FFFFFF"
    fill-rule="evenodd"/>

<!-- LINEA VERTICALE #01B4E7 -->
<path
  d="M35.3 687.3
     A6.3 6.3 0 0 1 41.6 681
     A6.3 6.3 0 0 1 47.9 687.3
     V1370
     H35.3
     Z"
  fill="#01B4E7"/>

     
<!-- LINEA ORIZZONTALE SUPERIORE #005DAA -->
<path
  d="M-20 1303.4
     H534.1
     A5.9 5.9 0 0 1 540 1309.3
     A5.9 5.9 0 0 1 534.1 1315.2
     H-20
     Z"
  fill="#005DAA"/>

<!-- LINEA ORIZZONTALE INFERIORE #17458F -->
<path
  d="M-20 1322
     H673.1
     A5.9 5.9 0 0 1 679 1327.9
     A5.9 5.9 0 0 1 673.1 1333.8
     H-20
     Z"
  fill="#17458F"/>
     
</svg>
