<?xml version="1.0" encoding="utf-8"?>
<svg xmlns="http://www.w3.org/2000/svg"
     viewBox="0 0 1080 1350"
     width="1080"
     height="1350">

  <defs>
    <linearGradient id="gradOrizzontale1"
                    gradientUnits="userSpaceOnUse"
                    x1="0" y1="0"
                    x2="540" y2="0">
      <stop offset="0%" stop-color="#005DAA"/>
      <stop offset="50%" stop-color="#005DAA"/>
      <stop offset="65%" stop-color="#4186BF"/>
      <stop offset="75%" stop-color="#78A9D2"/>
      <stop offset="85%" stop-color="#AECBE4"/>
      <stop offset="100%" stop-color="#FFFFFF"/>
    </linearGradient>

    <linearGradient id="gradVerticale"
                    gradientUnits="userSpaceOnUse"
                    x1="0" y1="681"
                    x2="0" y2="1350">
      <stop offset="0%" stop-color="#F4FCFE"/>
      <stop offset="25%" stop-color="#01B4E7"/>
      <stop offset="75%" stop-color="#01B4E7"/>
      <stop offset="85%" stop-color="#04A6DC"/>
      <stop offset="100%" stop-color="#13579D"/>
    </linearGradient>

    <linearGradient id="gradOrizzontale2"
                    gradientUnits="userSpaceOnUse"
                    x1="0" y1="0"
                    x2="679" y2="0">
      <stop offset="0%" stop-color="#17458F"/>
      <stop offset="62.5%" stop-color="#17458F"/>
      <stop offset="75%" stop-color="#4268A4"/>
      <stop offset="85%" stop-color="#8FA5C9"/>
      <stop offset="100%" stop-color="#FFFFFF"/>
    </linearGradient>
  </defs>

  <!-- CORNICE BIANCA -->
  <path
    d="M0 0H1080V1350H0Z
       M50 50V1300H1030V50Z"
    fill="#FFFFFF"
    fill-rule="evenodd"/>

<!-- LINEA VERTICALE #01B4E7 -->
<path
  d="M33.6 689
     A8 8 0 0 1 41.6 681
     A8 8 0 0 1 49.6 689
     V1370
     H33.6
     Z"
  fill="#01B4E7"/>

<!-- LINEA ORIZZONTALE SUPERIORE #005DAA -->
<path
  d="M-20 1301.4
     H532
     A8 8 0 0 1 540 1309.4
     A8 8 0 0 1 532 1317.4
     H-20
     Z"
  fill="#005DAA"/>

<!-- LINEA ORIZZONTALE INFERIORE #17458F -->
<path
  d="M-20 1325.4
     H671
     A8 8 0 0 1 679 1333.4
     A8 8 0 0 1 671 1341.4
     H-20
     Z"
  fill="#17458F"/>


<!-- ===== ANGOLO IN ALTO A DESTRA ===== -->

<!-- LINEA VERTICALE #01B4E7 -->
<path
  d="M1030.4 -20
     H1046.4
     V661
     A8 8 0 0 1 1038.4 669
     A8 8 0 0 1 1030.4 661
     Z"
  fill="#01B4E7"/>

<!-- LINEA ORIZZONTALE SUPERIORE #17458F -->
<path
  d="M406.9 18.2
     H2044.7
     V34.2
     H406.9
     A8 8 0 0 1 406.9 18.2
     Z"
  fill="#17458F"/>

<!-- LINEA ORIZZONTALE INFERIORE #005DAA -->
<path
  d="M545.9 42.2
     H2044.7
     V58.2
     H545.9
     A8 8 0 0 1 545.9 42.2
     Z"
  fill="#005DAA"/>
     
</svg>
