<?xml version="1.0" encoding="utf-8"?>
<svg version="1.1" id="Livello_1" xmlns="http://www.w3.org/2000/svg" xmlns:xlink="http://www.w3.org/1999/xlink"
     viewBox="0 0 1080 1350" width="1080" height="1350" xml:space="preserve">

  <path d="M0,0v1350h1080V0H0z M25,20.8h1030v1308.4H25V20.8z" fill="#D41367"/>
  <path d="M25,20.8v1308.4h1030V20.8H25z M50,41.7h980v1266.6H50V41.7z" fill="#FFFFFF"/>
  
  <path class="customizable" 
        d="M680.8,1287.5v20.8H0v-20.8H680.8z 
           M75,1349.8H50V782.5h25V1349.8z 
           M399.2,62.3v-20.8H1080v20.8H399.2z 
           M1005,0h25v567.4h-25V0z" 
        fill="#17458F"/>
  
  <path d="M75,782.5H50V20.8h25V782.5z 
           M25,62.3v-20.8h374.2v20.8H25z 
           M1005,568h25v763.4h-25V568z 
           M1055,1287.5v20.8H680.8v-20.8H1055z" 
        fill="#FFFFFF"/>

</svg>
