<?xml version="1.0" encoding="utf-8"?>
<svg version="1.1" id="Livello_1" xmlns="http://www.w3.org/2000/svg" xmlns:xlink="http://www.w3.org/1999/xlink"
     viewBox="0 0 1350 1080" width="1350" height="1080" xml:space="preserve">

  <path d="M0,0v1080h1350V0H0z M20.8,25h1308.4v1030H20.8V25z" fill="#D41367"/>
  <path d="M20.8,25v1030h1308.4V25H20.8z M41.7,50h1266.6v980H41.7V50z" fill="#FFFFFF"/>
  
  <path class="customizable" d="M455 50h895v25H455V50z" fill="#17458F"/>
  <path class="customizable" d="M1287.5 0h20.8v707.9h-20.8V0z" fill="#17458F"/>
  <path class="customizable" d="M0 1005h895v25H0v-25z" fill="#17458F"/>
  <path class="customizable" d="M41.7 372.1h20.8v707.9H41.7V372.1z" fill="#17458F"/>
  
  <path d="M41.7 25h20.8v350.3H41.7V25z" fill="#FFFFFF"/>
  <path d="M20.8 50h434.2v25H20.8V50z" fill="#FFFFFF"/>
  <path d="M895 1005h434.2v25H895V1005z" fill="#FFFFFF"/>
  <path d="M1287.5 707.9h20.8v347.1h-20.8V707.9z" fill="#FFFFFF"/>

</svg>
