<?xml version="1.0" encoding="utf-8"?>
<!-- Converter: rect+transform -> path (posizionamento corretto) -->
<svg version="1.1" id="Livello_1" xmlns="http://www.w3.org/2000/svg" xmlns:xlink="http://www.w3.org/1999/xlink" x="0px" y="0px"
	 viewBox="0 0 1080 1080" style="enable-background:new 0 0 1080 1080;" xml:space="preserve">
  <path d="M0,0v1080h1080V0H0z M25,25h1030v1030H25V25z" fill="#d41367"/>
  <path d="M25,25v1030h1030V25H25z M50,50h980v980H50V50z" fill="#FFFFFF"/>
  <path class="customizable" d="M1030 0 L1030 540 L1005 540 L1005 0 Z" fill="#17458f"/>
  <path class="customizable" d="M540 50 L1080 50 L1080 75 L540 75 Z" fill="#17458f"/>
  <path class="customizable" d="M50 1080 L50 540 L75 540 L75 1080 Z" fill="#17458f"/>
  <path class="customizable" d="M540 1030 L0 1030 L0 1005 L540 1005 Z" fill="#17458f"/>
  <path d="M25 50 L540 50 L540 75 L25 75 Z" fill="#FFFFFF"/>
  <path d="M50 540 L50 25 L75 25 L75 540 Z" fill="#FFFFFF"/>
  <path d="M1030 1030 L540 1030 L540 1005 L1030 1005 Z" fill="#FFFFFF"/>
  <path d="M1030 540 L1030 1030 L1005 1030 L1005 540 Z" fill="#FFFFFF"/>
  <path d="M75 75 L1005 75 L1005 1005 L75 1005 Z"fill="#FFFFFF"/>
</svg>
