<svg xmlns:dc="http://purl.org/dc/elements/1.1/" xmlns:cc="http://creativecommons.org/ns#" xmlns:rdf="http://www.w3.org/1999/02/22-rdf-syntax-ns#" xmlns:svg="http://www.w3.org/2000/svg" xmlns="http://www.w3.org/2000/svg" viewBox="0 0 762 762" fill="none"><metadata><rdf:RDF><cc:Work><dc:format>image/svg+xml</dc:format><dc:type rdf:resource="http://purl.org/dc/dcmitype/StillImage"/><dc:title>Adventurer</dc:title><dc:creator><cc:Agent><dc:title>Lisa Wischofsky</dc:title></cc:Agent></dc:creator><dc:source>https://www.instagram.com/lischis_adventures/</dc:source><cc:license rdf:resource="https://creativecommons.org/licenses/by/4.0/"/></cc:Work><cc:License rdf:about="https://creativecommons.org/licenses/by/4.0/"><cc:permits rdf:resource="https://creativecommons.org/ns#Reproduction"/><cc:permits rdf:resource="https://creativecommons.org/ns#Distribution"/><cc:permits rdf:resource="https://creativecommons.org/ns#DerivativeWorks"/><cc:requires rdf:resource="https://creativecommons.org/ns#Notice"/><cc:requires rdf:resource="https://creativecommons.org/ns#Attribution"/></cc:License></rdf:RDF></metadata><mask id="avatarsRadiusMask"><rect width="762" height="762" rx="0" ry="0" x="0" y="0" fill="#fff"/></mask><g mask="url(#avatarsRadiusMask)"><path d="M396.01 164.85c37.82 4.9 74.21 19.64 104.8 42.39 6.15 4.84 12.48 9.33 18.02 14.92 23.77 21.98 42.73 49.02 55.13 78.95 9.35 22.31 14.72 46.04 16.64 70.14 6.62.81 13.05 2.14 19.12 5 15.54 6.93 27.08 20.94 31.78 37.21 2.63 9.56 3.56 19.75 1.72 29.55-2.96 18.76-13.72 36.13-29.37 46.92-10.94 7.65-24.49 12.03-37.86 11.68-5.13-.05-10.04-1.6-15.13-1.79-1.85 2.17-3.23 4.84-4.76 7.25-18.66 29.62-44.57 54.51-74.64 72.4-28.1 16.73-59.9 27.16-92.46 30.32-11.08.7-21.87 2.05-32.98.74-51.69-2.3-102.07-23.44-140.15-58.43-29.03-26.55-50.84-60.83-62.54-98.39-7.09-22.85-10.62-46.78-10.07-70.71.52-40.34 12.53-80.58 33.94-114.76 19.1-30.81 45.91-56.58 77.2-74.83 29.63-17.28 63.35-27.68 97.59-29.87 14.66-1.47 29.44-.37 44.02 1.31Z" fill="#000"/><path d="M363 169.06c48.47-1.39 97.32 14.7 135.81 44.12 6.55 4.06 11.72 9.49 17.36 14.64 24.33 22.63 43.2 50.95 54.93 82.02 7.43 19.61 11.86 40.2 13.56 61.09-8.89.74-17.34 2.34-25.38 6.38-2.19 1.03-1.89 4.95.68 5.23 2.35.23 4.98-1.51 7.24-2.2 14.62-5.37 31.32-4.35 44.78 3.68 11.69 6.78 20.09 18.16 23.89 31.06 2.6 8.25 2.68 17.41 1.76 25.95-2.5 17.35-12.35 33.73-26.73 43.81-15.71 11.33-37.17 14.64-54.93 6.2-3.17-1.43-5.94-3.58-9.08-5.05-2.95-1.09-4.88 2.79-2.7 4.75 3.17 2.76 7.34 4.52 11 6.56-20.14 34.15-49.45 62.7-84.41 81.47-30.2 16.31-64.44 25.53-98.78 26.15-27.63.72-55.33-4.04-81.21-13.72-30.32-11.24-57.84-29.43-80.37-52.6-22.67-23.37-39.92-51.88-50.2-82.77-14.96-44.64-14.91-94.01.27-138.59 11.05-33.06 30.28-63.21 55.37-87.39 29.67-28.73 67.65-48.54 108.13-56.67 12.8-2.52 25.94-4.24 39.01-4.12Z" fill="rgba(158, 86, 34, 1)"/><path d="M605.03 404.4c2.63-.1 3.44 3.8 1.36 4.98-3.69 1.83-7.82 2.77-11.64 4.35-5.82 2.04-11.28 4.76-16.68 7.72 4.29 2.34 8.86 4.74 12.71 7.76 2.58 2.09 4.85 4.35 5.33 7.8-.26 3.59-2.73 6.55-5.45 8.69-5.86 4.66-13.92 7.18-20.79 10.26-1.75.62-4.43 1.99-5.59-.26-1.02-1.74-.06-3.11 1.57-3.87 6.65-3.3 14.86-5.62 20.79-10.16 1.37-1.14 3.39-2.74 3.61-4.62-4.07-5.63-12.42-8.59-18.23-12.09-2.34-1.72-2.29-4.24-.16-6.13 7.27-5.64 16.98-9.26 25.57-12.38 2.42-.83 5.03-1.95 7.6-2.05Z" fill="#000"/><g transform="translate(-161 -83)"><path fill-rule="evenodd" clip-rule="evenodd" d="M612.99 456.04c-8.4-14.32-22.44-25.12-38.46-29.54-12.78-3.63-26.45-3.13-39.02 1.1-15.79 5.52-29.25 17.14-36.82 32.08-3.28 6.32-5.17 13.09-6.5 20.06-4.4.35-8.76.83-13.04 1.93.188.504.294 1.03.396 1.539.273 1.36.52 2.594 2.244 2.921 2.35.223 4.762 0 7.146-.221.924-.085 1.844-.17 2.754-.229-.56 12.87 2.24 25.63 8.92 36.7 8.71 14.98 23.61 26.14 40.45 30.25 12.14 3.08 25.13 2.44 36.99-1.54 13.99-4.82 26.18-14.48 34.04-27.01 6.48-10.16 9.83-22.06 10.06-34.07.056-3.789-.398-7.446-.857-11.15-.12-.969-.241-1.942-.353-2.92.945-.109 1.903-.19 2.865-.271 2.307-.196 4.636-.393 6.845-.979 1.193-.461 1.438-1.638 1.68-2.801.099-.476.198-.948.36-1.369-4.39-1.13-8.7-.78-13.15-.28-.506-1.176-.99-2.354-1.473-3.528-1.498-3.645-2.981-7.253-5.077-10.672Zm.59 14.63c-4.82-13.64-13.95-25.42-26.54-32.68-13.32-7.97-29.57-10.1-44.6-6.46-14.55 3.64-27.43 12.73-35.54 25.37-4.25 6.79-7.73 14.51-8.83 22.5 5.954-.657 11.92-1.07 17.887-1.483 4.846-.335 9.693-.671 14.533-1.137 3.632-.325 7.273-.513 10.912-.701 4.858-.251 9.713-.501 14.538-1.079 16.386-1.117 32.786-2.395 49.169-3.671l8.471-.659Zm-200.2-17.09c11.97 6.48 20.98 17.39 25.57 30.15 2.69.16 5.36.38 8.03.75-.037.232-.071.462-.106.691-.156 1.028-.308 2.037-.594 3.059-1.042.76-2.471 1.03-3.832 1.287-.572.108-1.133.214-1.648.353 1.33 8.86 1.68 17.54-.78 26.25-3.51 13.23-12.13 24.91-23.71 32.19-10.65 6.72-23.58 9.67-36.09 8.03-16.11-1.81-30.98-11.25-39.64-24.94-6.25-9.68-8.98-21.04-8.76-32.5-2.42-.02-4.82-.1-7.23-.28.077-.367.111-.817.148-1.292.097-1.258.208-2.697 1.152-3.278 1.541-.487 3.188-.684 4.814-.877.61-.073 1.218-.146 1.816-.233 1.39-6.54 3.35-12.87 6.78-18.66 7.75-13.54 21.36-23.31 36.66-26.37 12.6-2.59 26.16-.54 37.42 5.67Zm19.769 30.83c-7.08-18.81-25.97-32.08-46.15-31.86-18.18-.19-35.6 10.43-43.83 26.64-2.2 4.2-3.57 8.69-4.72 13.28 7.002-.467 13.996-1.08 20.99-1.693 6.191-.543 12.382-1.086 18.58-1.527 3.774-.088 7.516-.469 11.258-.851 3.893-.396 7.786-.793 11.712-.859 2.094-.16 4.191-.308 6.29-.456 8.655-.612 17.331-1.225 25.87-2.674Z" fill="#000"/><path d="M615.13 476.4c1.79 9.43 1.83 19.44-.85 28.71-4.02 14.67-13.78 27.56-26.86 35.34-11.86 6.95-25.9 9.98-39.53 7.74-16.06-2.38-30.89-11.65-40.06-25.03-7.65-11.07-11.16-24.46-10.6-37.86 2.78-.26 5.55-.53 8.32-.81.58 6.88 2.87 13.16 8.11 17.84 9.26 8.79 25.12 8.57 33.95-.73 5.71-5.52 7.56-12.65 7.15-20.42 4.5-.49 8.95-1.09 13.47-1.39 15.64-.93 31.25-2.54 46.9-3.39ZM430.931 490.81c1.23-.4 2.51-.66 3.76-.97 3.28 11.9 1.31 24.64-4.45 35.44-6.94 12.82-19.63 22.19-33.98 24.89-17.42 3.66-36.18-3.36-47.37-17.1-8.08-9.7-11.83-22.11-11.18-34.67 16.43-1.61 32.94-2.6 49.35-4.39.17 5.54 1.15 10.77 4.71 15.18 5.35 7.13 14.85 10.26 23.42 7.93 7.1-2.26 13-7.85 15.04-15.09 1.18-3.82.53-7.36.7-11.22Z" fill="#fff"/></g><g transform="translate(-161 -83)"><g fill="#000"><path d="M501.99 384.96c9.91.12 19.87 3.23 28.83 7.31 3.36 1.88 7.05 4.01 7.31 8.29-5.14-.86-10.14-2.06-15.38-2.28-11.6-.68-23.13 1.36-33.25 7.23-2.54 1.41-4.95 3.26-7.64 4.35-1.8.27-3.92-1.99-3.94-3.73-.18-5.81 1.95-11.92 6.53-15.7 5.03-4.23 11.15-5.3 17.54-5.47ZM414.03 402.61c5.81.15 10.93 5.3 12.51 10.64.8 2.63-.46 5.72-3.53 5.61-8.82.21-18.21.03-26.81 2.26-7.52 2.01-14.74 6.71-21.36 10.74-1.22.81-2.57.96-3.98 1.22.33-1.93.64-3.66 1.94-5.21 3.28-4.33 6.78-8.58 10.74-12.3 5.88-5.17 13.01-8.96 20.32-11.66 3.23-1.11 6.76-1.58 10.17-1.3Z"/></g></g><g transform="translate(-161 -83)"><path d="M519 572.72c12.29.18 24.45 2.02 35.94 6.5 17.84 6.73 33.25 19.14 43.87 34.94 1.14 1.53.8 3.58.95 5.41-7.22.57-14.43-.04-21.67.76.12 7.4 0 14.39-3.75 21.02-2.19 3.77-5.69 7.2-10.34 7.12-4.49-.03-8.23-3.43-10.38-7.1-3.71-6.4-4.2-13.83-4.46-21.04-25.38.12-50.77.29-76.16.43-7.35-.26-14.65.67-22 .42-7.53-.2-14.18.78-21.52-.74.07-1.62-.51-4.04.59-5.37 22.4-25.3 54.86-41.81 88.93-42.35Z" fill="#000"/><path d="M508.979 579.48c6.98-.54 14.06-.45 21.04-.02 17.95 1.77 34.93 9.2 48.66 20.86-11.23.41-22.44.62-33.68.58-30.98 1.14-61.99.83-92.97 1.81 6.13-4.21 12.16-8.38 18.84-11.69 11.91-6.06 24.84-10.02 38.11-11.54Z" fill="#8F2E45"/><path d="M569.001 606.4c5.17.01 10.56-.64 15.68.04 2.37 2.05 4.27 4.71 6.31 7.09-5.88.61-11.88.05-17.7.77-1.23 7.11-.33 16.61-3.6 23.41-1.15 2.69-3.33 4.04-5.67 5.56-2.32-1.57-4.53-2.89-5.74-5.56-3.42-6.79-3.33-15.68-4.08-23.16-5.72-.52-11.41-.06-17.2-.19-32.79.26-65.57.28-98.36.54 2.11-2.04 4.57-5.59 7.5-6.24 17.96-.71 35.91-.24 53.86-1.1 11-.5 22-.08 33-.59 12-.24 24-.08 36-.57Z" fill="#6FA942"/></g><g transform="translate(-161 -83)"/><g transform="translate(-161 -83)"><path d="M816.99 157.13c10.51 1.11 22.09 2.68 31.76 7.12 3.05 1.49 3.78 5.31.15 6.56-9.11 1.7-17.9 2.83-26.54 6.56-5.61 2.33-10.49 5.7-15.36 9.28 9.31-.22 18.35 1.15 27.51 2.68 15.39 3.24 31.45 7.97 44.98 16.15 2.54 1.3 3.77 4.57 5.02 6.99 7.97 17.16 13.82 35.69 16.04 54.52.99 16.97.76 35.63-6.05 51.5-3.14 7.58-8.51 15.15-15.62 19.44-1.36 1.15-3.19-.76-3.98-1.83-11.88-16.84-28.34-30.51-45.98-40.97-23.13-13.74-50.23-23-77.26-23.65 12.72 4.64 24.85 10.03 35.85 18.03 9.3 6.73 17.65 15.18 25.35 23.67 1.72 1.94 1.32 3.21.39 5.41-1.92.14-3.16 0-4.78-1.07-6.87-4.34-14.06-8.29-21.62-11.3-18.03-7.72-38.6-12.65-58.11-8.36 8.11 16.03 14.59 32.76 19.77 49.95 8.29 27.85 13.96 57.09 14.65 86.19.06 6.96-.39 14.1-1.28 21-.49 2.01-.92 6.03-3.83 5.53-11.23-2.03-23.4-.42-33.59 4.77.31 23.01-10.91 46.23-26.05 63.12-1.6 1.9-3.23 2.87-5.77 2.03-2.55-2.15.17-5.34.52-7.98 1.13-6.37 1.27-13.01 1.67-19.47-.18-8.02.68-15.99.13-24-.24-7 .11-13.99-.46-21-.69-14.58-1.31-29.49-4.08-43.85-.13-1.25-1.4-1.64-2.29-2.28-6.25-3.54-11.9-7.96-17.14-12.85-11.16-10.58-21.14-22.74-28.72-36.13-.66 18.13-4.6 35.76-10.54 52.86-.7 1.59-1.26 4.14-2.88 5.01-4.13.63-8.86-1.82-12.86-2.82-4.14-1.47-8.94-2.11-12.83-4.01-.58-2.86-.25-6.02-.16-8.93 1.01-19.42.36-38.83-3.01-58-1.68-9.07-3.12-18.34-5.62-27.22.65 16.38-.24 32.96-2.18 49.24-1.46 10.06-3.82 20.02-6.56 29.81-.76 2.64-1.55 5.51-2.92 7.9-.9 1.57-1.89 2.03-3.7 1.69-52.16-10.92-106.99-15.32-160.04-9.19-2.22.37-3.12-1.64-3.92-3.28-3.88-8.89-6.84-18.46-7.84-28.12-1.16-9.93-1.49-20.29.29-30.16-2.88 8.05-4.25 16.88-5.3 25.34-1.46 11.15.24 23.02 2.53 33.97.3 1.53.17 3.03.05 4.56-18.17 3.33-38.2 8.78-53.06 20.21-1.19.88-2.89.42-3.85-.62-10.94-10.5-16.86-24.17-20-38.82-4.73 8.41-6.44 19.05-9.43 28.24-.91 2.14-4.36 2.79-5.68.63-1.27-2.54-1.83-5.53-2.14-8.33-2.33-17.67 5.04-36.5 16.07-50.12 2.16-17.88 7.69-34.09 16.77-49.63-16.14 1.24-31.33 5.65-46.6 10.75-10.16 3.39-20.1 7.6-29.75 12.26-10.83 5.24-21.15 12.05-30.89 19.11-10.12 7.24-18.58 15.98-26.52 25.51-1.5 1.74-3.23 1.99-5.15.66-.84-3.34-.76-6.97-.74-10.39.51-12.28 1.24-24.71 3.38-36.82 2.41-11.68 5.06-23.49 9.4-34.55 7.92-21.56 20.03-41.49 36.03-58.01 6.94-6.95 14.95-12.57 23.6-17.18-12.44-3.95-25.5-4.05-38.18-1.23-1.79.38-3.17.99-4.46-.74-1.14-2.18.4-3.62 1.9-5 6.46-5.5 14.36-9.17 22.45-11.6 15-4.42 30.55-5.05 46.06-3.72 24.95 2.53 49.95 10.32 71.33 23.54 14.01 8.67 27.93 20.93 34.86 36.15 29.51-21.53 64.76-34.35 100.8-39.39 23.55-3.3 47.48-3.46 71.04-.1 31.9 4.31 63.62 14.74 91.1 31.65 7.84-20.85 22.44-37.44 39.47-51.38 13.86-10.97 29.49-21.05 46.32-26.73 18.63-6.69 38.29-10 58.08-8.76Z" fill="#000"/><path d="M819.989 163.25c6.52.41 12.71 2.01 19.04 3.46-6.5 1.44-12.73 2.83-18.85 5.58-8.01 3.46-14.87 8.66-21.26 14.51-4.41 1.28-9.34 1-13.79 2.25-2.65 1.59-2.33 4.77.84 5.34 11.09-1.07 21.35-3.21 32.04-1.5 9.72.83 19.41 2.55 28.8 5.21 8.54 2.25 17.07 5.13 24.96 9.12 2.42 1.35 4.81 2.27 6.1 4.91 2.5 4.78 4.57 9.82 6.57 14.84-21.15-10.69-43.97-16.42-67.41-19.18-24.79-2.16-50.83-1.22-74.25 7.97-3.35 1.46-7.29 2.75-10.05 5.21-1.24 2.85 1.36 5.31 4.11 3.82 15.68-8.07 32.71-11.05 50.16-12.14 33.57-1.32 68.35 5.47 98.21 21.15 1.09.67 2.19.92 2.5 2.33 3.48 11.2 6.73 23.12 7.34 34.87.89 9.06.02 17.82-.82 26.84-1.85 12.6-5.55 25.03-15.31 33.84-11.61-15.63-26.31-28.51-42.74-38.88-20.44-12.8-43.72-22.17-67.65-25.64-10.83-1.47-21.7-1.83-32.53-.14-2.04.46-4.44 2.6-2.82 4.76 1.1 1.88 2.85 1.98 4.79 2.33 5.41.75 10.71 2.31 15.86 4.09 15.42 5.77 29.81 14.2 41.84 25.51-7.66-3.36-15.47-6.5-23.48-8.94-14.97-4.19-31.16-5.9-46.42-2.19-2.38-4.62-6.12-7.84-9.08-12.11-2.27-3.51-5.51-5.81-8.32-8.82-9.1-9.31-19.32-17.23-30.09-24.5 4.08-12.19 11.35-23.42 19.95-32.91 11.53-13.2 25.99-24.13 41.04-32.99 13.05-7.79 28.02-12.63 42.77-15.95 12.41-2.59 25.34-2.94 37.95-2.05ZM279.999 197.72c10.36-1.26 20.2-.13 30.49 1 26.8 3.89 54.23 14.16 75.24 31.54 8.66 7.1 15.84 15.86 20.17 26.26-24.68 4.46-45 20.99-58.95 41.24-19.13.43-38.82 6-56.8 12.31-15.57 5.77-31.19 12.76-45.01 22.01-5.41 3.55-10.76 7.22-15.89 11.15-7.44 5.73-13.85 12.28-20.14 19.2.12-4.3.19-8.63.66-12.92.93-7.77.99-15.09 3.01-22.86 2.35-2.57 5.25-4.7 7.92-6.93 22.48-17.67 49.91-28.9 78.29-32.24 8.36-.81 16.68-.69 25.05-.3 3.1-.12 2.77-2.35 2.66-4.71-3.48-1.31-7.02-1.5-10.7-1.53-17.42-.2-35.03 2.86-51.49 8.54-18.05 6.32-35.57 15.63-50.13 28.1 5.96-26.95 17.31-52.83 35.24-73.99 8.93-11.05 20.13-20.11 33.21-25.76 2.31-1.09 4.43-1.84 3.66-4.94-1.78-1.84-5.03-2.02-7.35-2.97-9.91-3.59-20.53-4.8-31.01-3.83 9.57-5.2 21.09-7.55 31.87-8.37Z" fill="rgba(106, 78, 53, 1)"/><path d="M628.801 229.38c33.05 11.57 64.23 31.02 86.4 58.43 4.94 5.87 8.29 12.49 11.64 19.33 8.91 18.58 15.52 38.43 20.6 58.38 4.32 17.28 7.59 34.73 9.11 52.49 1.03 11.95 1.65 24.98-.7 36.77-10.71-1.47-21.54.28-31.53 4.27-.58-2.72-1.01-5.54-1.93-8.17-1.27-2.54-5.26-1.91-5.18 1.13.53 5.04 1.9 9.85 1.65 14.99-.64 18.48-8.3 36.62-19.45 51.2.89-5.28.89-10.75 1.13-16.11.22-17.35.3-34.75-.61-52.08-1.25-13.23-1.26-27.3-4.66-40.18-2.37-2.61-6.38-3.71-9.18-5.95-15.57-11.11-28.37-26.48-38.27-42.74-1.93-3.36-4.12-6.74-5.41-10.4-.64-3.53-.62-7.19-1.11-10.76a186.842 186.842 0 0 0-20.25-63c-3.47-6.42-8.18-11.59-12.99-17-1.12-1.55-2.42-1.31-4.14-1.42-.44.85-.89 1.69-1.34 2.53 1.46 3.87 4.38 6.13 6.99 9.37 5.2 6.01 8.48 12.89 11.7 20.09 6.08 13.37 10.39 27.5 13.05 41.94 5.32 27.88 1 55.82-7.8 82.49-6.18-1.55-12.27-3.6-18.38-5.41 1.79-15.62 1-31.12-.11-46.75-1.37-11.63-3.39-23.16-5.72-34.63-2.26-11.15-5.86-22.08-9.81-32.73-.96-2.41-2.66-1.8-4.8-2.05-.53 1.55-1.06 2.94-.81 4.62.56 5.04.89 10.1 1.44 15.14 1.52 17.22.15 33.83-1.22 50.98-1.52 12.98-4.27 25.86-8.12 38.36-35.22-7.25-70.93-11.42-106.89-11.82-2.79-14.14-4.63-28.22-3.09-42.65.62-14.33 3.56-28.39 7.88-42.04 3.55-11.2 9.11-22.09 14.73-32.39 4.04-7.45 8.5-14.51 14.15-20.86.72-.98 2.15-2.31 1.93-3.63-.04-2.54-3.51-3.17-5.05-1.44-6.42 6.63-11.49 14.97-15.99 22.98-5.92 10.93-11.44 21.62-15.23 33.51-4.65 14.77-7.9 30.32-8.16 45.83-1.22 13.42.84 27.53 3.49 40.68-6.21.06-12.42.14-18.62.31-9.25.88-18.47.98-27.66 2.48-8.22-16.83-9.4-35.1-7.76-53.5 1.34-12.61 4.17-25.1 8.19-37.13.59-1.96 2.28-4.88 1.21-6.81-1.39-2.13-4.42-1.44-5.33.76-3.42 6.8-6.41 13.85-9.03 21-5.78 16.78-11.28 33.23-11.42 51.21-.29 9.41.93 18.5 2.95 27.67-17.31 3.78-34.35 8.52-48.99 18.92-9.18-10.05-14.73-22.74-16.99-36.09-2.86-17.31-.75-35.51 5.08-52.01 6.91-19.45 19.21-37.79 35.7-50.37 10.53-8.07 22.67-13.66 35.9-15.3 2.35-.34 5.57.16 7.37-1.59.92-2.74-.25-3.51-2.34-4.92 14.74-10.24 30.63-18.67 47.49-24.86 52.98-19.54 113.02-19.63 166.29-1.07ZM326.379 362.05c-.08 3.45.39 7.01 0 10.43-1.68 4.45-4.13 8.61-5.98 13-1.94 4.34-2.88 8.91-4.53 13.35-.83-12.74 3.93-26.02 10.51-36.78Z" fill="rgba(106, 78, 53, 1)"/></g></g></svg>