<svg xmlns:dc="http://purl.org/dc/elements/1.1/" xmlns:cc="http://creativecommons.org/ns#" xmlns:rdf="http://www.w3.org/1999/02/22-rdf-syntax-ns#" xmlns:svg="http://www.w3.org/2000/svg" xmlns="http://www.w3.org/2000/svg" viewBox="0 0 762 762" fill="none"><metadata><rdf:RDF><cc:Work><dc:format>image/svg+xml</dc:format><dc:type rdf:resource="http://purl.org/dc/dcmitype/StillImage"/><dc:title>Adventurer</dc:title><dc:creator><cc:Agent><dc:title>Lisa Wischofsky</dc:title></cc:Agent></dc:creator><dc:source>https://www.instagram.com/lischis_adventures/</dc:source><cc:license rdf:resource="https://creativecommons.org/licenses/by/4.0/"/></cc:Work><cc:License rdf:about="https://creativecommons.org/licenses/by/4.0/"><cc:permits rdf:resource="https://creativecommons.org/ns#Reproduction"/><cc:permits rdf:resource="https://creativecommons.org/ns#Distribution"/><cc:permits rdf:resource="https://creativecommons.org/ns#DerivativeWorks"/><cc:requires rdf:resource="https://creativecommons.org/ns#Notice"/><cc:requires rdf:resource="https://creativecommons.org/ns#Attribution"/></cc:License></rdf:RDF></metadata><mask id="avatarsRadiusMask"><rect width="762" height="762" rx="0" ry="0" x="0" y="0" fill="#fff"/></mask><g mask="url(#avatarsRadiusMask)"><path d="M396.01 164.85c37.82 4.9 74.21 19.64 104.8 42.39 6.15 4.84 12.48 9.33 18.02 14.92 23.77 21.98 42.73 49.02 55.13 78.95 9.35 22.31 14.72 46.04 16.64 70.14 6.62.81 13.05 2.14 19.12 5 15.54 6.93 27.08 20.94 31.78 37.21 2.63 9.56 3.56 19.75 1.72 29.55-2.96 18.76-13.72 36.13-29.37 46.92-10.94 7.65-24.49 12.03-37.86 11.68-5.13-.05-10.04-1.6-15.13-1.79-1.85 2.17-3.23 4.84-4.76 7.25-18.66 29.62-44.57 54.51-74.64 72.4-28.1 16.73-59.9 27.16-92.46 30.32-11.08.7-21.87 2.05-32.98.74-51.69-2.3-102.07-23.44-140.15-58.43-29.03-26.55-50.84-60.83-62.54-98.39-7.09-22.85-10.62-46.78-10.07-70.71.52-40.34 12.53-80.58 33.94-114.76 19.1-30.81 45.91-56.58 77.2-74.83 29.63-17.28 63.35-27.68 97.59-29.87 14.66-1.47 29.44-.37 44.02 1.31Z" fill="#000"/><path d="M363 169.06c48.47-1.39 97.32 14.7 135.81 44.12 6.55 4.06 11.72 9.49 17.36 14.64 24.33 22.63 43.2 50.95 54.93 82.02 7.43 19.61 11.86 40.2 13.56 61.09-8.89.74-17.34 2.34-25.38 6.38-2.19 1.03-1.89 4.95.68 5.23 2.35.23 4.98-1.51 7.24-2.2 14.62-5.37 31.32-4.35 44.78 3.68 11.69 6.78 20.09 18.16 23.89 31.06 2.6 8.25 2.68 17.41 1.76 25.95-2.5 17.35-12.35 33.73-26.73 43.81-15.71 11.33-37.17 14.64-54.93 6.2-3.17-1.43-5.94-3.58-9.08-5.05-2.95-1.09-4.88 2.79-2.7 4.75 3.17 2.76 7.34 4.52 11 6.56-20.14 34.15-49.45 62.7-84.41 81.47-30.2 16.31-64.44 25.53-98.78 26.15-27.63.72-55.33-4.04-81.21-13.72-30.32-11.24-57.84-29.43-80.37-52.6-22.67-23.37-39.92-51.88-50.2-82.77-14.96-44.64-14.91-94.01.27-138.59 11.05-33.06 30.28-63.21 55.37-87.39 29.67-28.73 67.65-48.54 108.13-56.67 12.8-2.52 25.94-4.24 39.01-4.12Z" fill="rgba(236, 173, 128, 1)"/><path d="M605.03 404.4c2.63-.1 3.44 3.8 1.36 4.98-3.69 1.83-7.82 2.77-11.64 4.35-5.82 2.04-11.28 4.76-16.68 7.72 4.29 2.34 8.86 4.74 12.71 7.76 2.58 2.09 4.85 4.35 5.33 7.8-.26 3.59-2.73 6.55-5.45 8.69-5.86 4.66-13.92 7.18-20.79 10.26-1.75.62-4.43 1.99-5.59-.26-1.02-1.74-.06-3.11 1.57-3.87 6.65-3.3 14.86-5.62 20.79-10.16 1.37-1.14 3.39-2.74 3.61-4.62-4.07-5.63-12.42-8.59-18.23-12.09-2.34-1.72-2.29-4.24-.16-6.13 7.27-5.64 16.98-9.26 25.57-12.38 2.42-.83 5.03-1.95 7.6-2.05Z" fill="#000"/><g transform="translate(-161 -83)"><path d="M506.03 461.12c5.49-1.16 11.66 2.44 16.92 3.98 22.15 7.08 45.9 9.46 69.06 7.74 6.23-.6 12.8-2.41 19.04-2.01 6.2.66 10.39 6.07 10.95 12.06.76 10.8-.8 22-5.08 31.99-5.94 13.99-16.89 25.72-30.44 32.6-21.35 11.08-48.35 9.02-67.75-5.21-14.69-10.49-24.7-27.34-26.67-45.3-.85-8.69-.38-17.4 2.09-25.8 1.39-5.24 6.78-9 11.88-10.05ZM428.25 466.75c3.63 2.23 5.82 6.6 7.78 10.25 5.54 10.79 7 23.18 4.95 35.07-2.05 10.58-7.16 20.51-14.73 28.2-8.25 8.47-19.31 14.15-31.01 15.88-14.37 2.22-29.54-1.48-41.16-10.25-11.27-8.31-19.08-21.07-21.34-34.89-.57-3.68-1.52-7.6.15-11.13 1.65-4.19 5.67-7.09 10.11-7.6 4.94-.59 9.87-1.18 14.78-2 18.38-3.3 35.26-11.25 50.36-22.12 5.88-5.11 13.54-5.46 20.11-1.41Z" fill="#000"/><path d="M513.41 467.65c12.21 5.03 25.51 7.97 38.57 9.71 15.64 2.02 31.39 2.59 47.04.31 3.87-.56 8.11-1.82 11.99-1.53 2.43.08 4.35 2.67 4.82 4.87 1.65 11.7-.21 23.76-5.45 34.37-6.36 13.22-17.88 24.01-31.6 29.27-10.66 4.29-22.51 5.42-33.76 3.03-17.11-3.39-32.41-14.68-40.59-30.1-6.9-12.96-9.37-29-5.07-43.17 1.67-6.19 8.01-9.93 14.05-6.76ZM427.77 474.23c4.78 7.05 7.55 15.26 8.39 23.72 1.24 16.39-6.13 32.97-19.25 42.91-8.79 6.83-19.83 10.35-30.92 10.3-11.61-.38-23-4.71-31.68-12.48-9.68-8.5-15.78-20.84-16.54-33.71-.47-3.19 2.13-6.46 5.26-6.95 3.24-.67 6.63-.78 9.92-1.18 18.5-2.26 36.59-9.6 52.19-19.69 3.09-1.92 5.86-4.31 8.97-6.18 4.4-2.3 10.95-1.13 13.66 3.26Z" fill="#fff"/><path d="M533.54 496.92c12.3-1.1 23.89 8.53 24.08 21.08.84 11.05-7.56 21.22-18.45 22.83-11.91 2.14-23.93-6.81-25.41-18.8-1.92-12.29 7.51-23.97 19.78-25.11ZM400.49 505.5c5.96-1.31 12.63.86 17.06 4.96 6.53 5.99 8.17 16.12 3.72 23.81-4.15 7.79-13.62 11.6-22.08 9.37-8.34-2.18-14.54-9.95-14.42-18.64-.3-9.44 6.57-17.6 15.72-19.5Z" fill="#000"/></g><g transform="translate(-161 -83)"><g fill="#000"><path d="M523.24 384.36c6.17-.42 13.09-.61 18.45 2.95 3.68 2.44 5.4 6.35 4.48 10.74-1.55 6.16-6.62 10.92-11.61 14.5-8.97 6.29-19.71 10.24-30.57 11.53-5.61.53-12.5.43-17.47-2.55-3.63-2.13-5.9-6.12-5.2-10.36 1.02-5.75 5.49-10.49 9.94-13.96 9.19-7.03 20.55-11.34 31.98-12.85ZM392.22 401.23c9.11-.36 18.31.51 26.31 5.24 3.85 2.26 7.34 5.89 7.89 10.49.34 4.21-1.96 7.8-5.19 10.27-4.52 3.55-9.87 5-15.43 5.99-9.95 1.02-20.55.32-29.48-4.58-3.87-2.29-7.88-5.85-8.47-10.57-.73-4.27 2.02-8.47 5.39-10.84 5.4-3.87 12.43-5.69 18.98-6Z"/></g></g><g transform="translate(-161 -83)"><path d="M526 559.6c18.01-.01 37.23 2.15 53.99 9.09-52.2 7.17-107.15 15.07-158.98 22.2 8.03-6.99 17.68-12.32 27.44-16.47 12.23-5.1 26.26-9.18 39.59-7.43.98.15 1.86.04 2.63-.34 10.24-5.91 23.77-6.7 35.33-7.05Z" fill="#D31E1E"/><path d="M579.989 568.69c2.42 1 1.92 3.4 1.38 5.45-6.78 13.35-16.08 25.18-28.35 33.9-17.19 12.49-38.88 18.4-60.02 17.58-26.81-.96-53.07-12.04-73.44-29.31-.4-2.42-.49-3.71 1.45-5.42 51.83-7.13 106.78-15.03 158.98-22.2Z" fill="#000"/><path d="M581.371 574.14c-1.11 4.61-1.85 9.19-3.65 13.62-5.36 13.94-16.05 25.4-28.38 33.56-13.59 8.87-29.26 14.15-45.36 15.89-19.66 2.09-40.79-1.09-58.01-11.18-11.76-6.82-21.37-16.99-26.41-29.72 20.37 17.27 46.63 28.35 73.44 29.31 21.14.82 42.83-5.09 60.02-17.58 12.27-8.72 21.57-20.55 28.35-33.9Z" fill="#D31E1E"/><path d="M573.86 575.51c-8.17 15.05-20.98 27.46-36.37 34.99-12.46 6.12-26.6 9.44-40.49 9.19-24.71.18-49.01-9.01-68.58-23.87 47.93-6.59 97.73-13.8 145.44-20.31Z" fill="#fff"/></g><g transform="translate(-161 -83)"/><g transform="translate(-161 -83)"><path d="M570.1 171.12c2.7-1.1 4.86.53 5.77 3.03 2.52 7.64.94 16.43-1.66 23.86 6.48-3.59 13.39-6.19 20.8-6.93 16.37-1.93 32.5 2.34 46.87 10.06 11.74 6.32 21.47 14.77 30.85 24.14 9.6 9.66 21.27 19.21 34.32 23.63 7.54 2.7 15.81 2.89 23.47.6 2.04-.41 5.19-1.67 6.83.13 1.79 1.49.79 4.22.41 6.16-3.44 11.52-8.62 22.16-18.63 29.35 13.15 5.47 24.07 15.42 30.67 28.05 6.97 13.36 10.31 28.75 9.85 43.8.18 10.63-1.91 21.02-5.17 31.09 7.9 8.29 12.39 19.6 13.57 30.89 1.41 13.68-1.53 28.27-7.79 40.49-.83 1.82-2.61 1.18-4.23 1.2-4.34-.47-8.67-.77-13.05-.55-5.76.18-11.48 1.98-16.8 4.1-2.08.74-3.91 1.64-6.19 1.18-7.42-1.35-13.55-5.5-20.8-7.86 3.16 4.34 6.34 8.78 8.9 13.51.75 1.5 1.67 3.25 1.71 4.95-.2 2.36-3.48 3.2-4.7.95-3.95-7.23-8.22-14.15-13.57-20.46-2.62-2.55.39-6.24 3.46-5.65 4.24.67 8.31 2.66 12.38 4-3.53-5.07-7.16-10.32-11.45-14.78-2.1-2.21-4.79-3.86-6.77-6.17-.21-1.4.2-2.79.56-4.13 4.76-14.21 4.39-30.14.84-44.58-3.02-12.04-8.09-23.41-16.24-32.87-5.19-2.21-10.31-4.5-15.09-7.53-11.31-6.79-20.74-16.09-31.81-23.09-14.45-9.38-34.11-10.05-49.5-2.6-1.53.58-3.16.43-3.59-1.39-1.38-2.7.5-4.42 1.82-6.59 4.8-6.68 9.79-13.23 14.87-19.7-7.2 4.08-13.74 9.19-19.66 14.96-2.68 2.56-4.67 5.61-6.49 8.82-1.67.22-3.32.46-5.01.53-2.36-2.87-2.98-6.13-6.39-8.19-6.3-4.16-15.37-3.7-22.47-2.41-18.86 3.77-37.4 10.11-56.99 10.68-11.29.24-22.31-2.23-31.72-8.65-7.4 5.01-15.22 8.92-24.09 10.52-14.21 2.64-29.42 1.1-43.3-2.65-7.6 6.08-12.8 13.53-18.89 20.99-6.11 7.91-12.18 16.25-16.78 25.14-.94 1.59-1.8 3.69-3.32 4.79-4.21 2.58-8.99 3.91-13.9 4.22-8.41.63-17.47-.66-24.46-5.7-6.15-4.36-9.73-11.12-11.06-18.44-1.82-9.79-.42-20.25 3.01-29.55.72-2.26 3.56-3.14 4.88-.95 2.24 4.49 3.21 8.75 8.41 10.77 4.66 1.45 10.38-1.11 14.72-2.83-9.74-8.83-13.85-22.08-12.35-34.98 2.22-20.18 13.37-39.57 27.31-54 11.38-12.03 25.89-20.44 42.02-24.23 6.3-1.41 13.09-3.16 19.56-2.78 2.36.01 3.09 3.47 1.25 4.8-8.72 7.82-11.67 20.96-8.92 32.13 3.31-5.65 6.47-11.3 10.72-16.32 15.36-18.65 39.23-29.38 62.9-32.15 9.31-1.42 18.61-1.21 27.98-1.94 23.32-.58 46.76-3.72 67.92-14.1 5.09-2.37 9.17-6.43 14.21-8.77Z" fill="#000"/><path d="M570.84 177.21c1.49 7.08-.16 14.83-3.21 21.3-.89 2.17-3.47 4.75-2.27 7.14.66.99 2.49 2.2 3.65 1.46 3.95-2.02 7.55-4.64 11.68-6.37 8.88-4.17 18.62-5.19 28.32-4.15 17.41 1.95 33.16 9.72 46.57 20.79 8.21 6.5 14.87 14.47 22.92 21.12 8.47 7.05 17.91 13.3 28.56 16.47 8.23 2.63 16.65 2.52 24.94.2-2.7 7.89-6.3 16.45-12.52 22.24-2.66 2.59-5.91 4.11-8.96 6.14-1.58 1.4-1.88 2.79-.78 4.65 3.34 1.07 6.75 1.48 9.95 3.07 8.13 4 15.35 10.01 20.6 17.41 7.63 10.82 11.85 24.24 13.29 37.32.96 12.24.27 24.41-3.35 36.2-.65 2.25-1.8 4.41-2.21 6.71 2.41 3.31 5.73 5.75 7.68 9.49 9.74 16.68 8.52 36.33 1.61 53.8-.55.87-.85 3.17-2.27 2.65-9.5-1.33-18.92-.14-27.86 3.3-1.99.69-4.04 1.82-6.15 2.01-1.55-.29-3.02-.78-4.52-1.26-5.87-9.68-12.69-19.4-21.4-26.74 8.34-25.83 2.83-55.65-12.4-77.86 11.21 1.9 21.8-.94 31.88-5.7 3.26-1.62 6.9-2.97 9.8-5.19 1.96-2.18.13-4.9-2.51-4.99-10.43-.26-19.63-7.62-26.08-15.25-5.01-6.27-10.12-13.17-9.26-21.64l-2.52-.84c-.87.34-1.73.67-2.59 1.01-1.64 5.44.39 10.12 2.84 14.89 6.55 11.63 16.23 21.31 28.77 26.31-7.59 3.76-16.47 6.78-25.04 6.25-8.22-.47-16.34-3.82-23.41-7.89-11.69-6.68-20.86-15.57-31.85-23.02-6.58-4.45-13.81-7.71-21.71-8.89-9.2-1.24-18.9-.96-27.79 1.92 4.99-6.94 10.15-13.8 15.73-20.28 1.39-1.64 2.85-3.31 4.01-5.13 1.07-1.34.41-3.66.39-5.25-2.12-.08-3.97-.19-5.88.88-13.18 6.46-26.47 15.61-35.24 27.53-2.83-3.87-6.2-6.94-10.81-8.49-9.01-3.08-19.37-1.66-28.44.45-18.22 3.91-37.25 10.25-55.99 8.76-12.1-.7-23.85-6.98-31.13-16.66-9.11-12.69-10.45-30.62-3.34-44.54 5.55-11.46 14.91-20.42 26.23-26.14-.52 4.75-.8 9.25 1.08 13.78 2.73 7.25 8.81 12.62 16.13 14.95 9.24 2.96 19.27 3.43 28.51 6.53 1.73.51 3.7 1.4 5.52 1.22 1.37-.12 1.91-1.98 2.66-2.91-1.53-1.47-3.06-2.78-5.12-3.44-8.14-2.8-17.14-3.81-25.54-5.66-3.46-.85-6.98-1.96-9.93-4.01-5.89-3.98-9.21-11.67-7.6-18.66 1.24-4.4 5.19-5.34 8.01-8.93-.41-.99-.82-1.98-1.23-2.98-4.65-.57-9.3 2.49-13.52 4.28-15.1 6.94-27.29 19.65-32.86 35.39-6.33 17.72-1.32 39.39 13.03 51.81-3.69 2.2-7.39 4.3-11.41 5.85-9.58 3.86-20.34 3.93-30.5 3.25-17.9-1.2-35.13-7.22-48.71-19.16-2.04-1.91-3.22-4.43-5.18-6.37-2.11-.28-3.33.49-3.45 2.66.09 3.72 3.46 6.98 6.12 9.23 7.21 5.82 15.33 10.57 23.97 13.91-3.48 3.42-6.88 6.89-9.94 10.69-8.55 10.36-17.55 21.23-23.89 33.1-1.58 2.94-2.97 5.58-6.39 6.66-7.21 2.16-16.06 1.77-23.04-1.09-5.29-2.1-9.39-6.33-11.55-11.57-3.34-7.73-2.79-17.08-1.33-25.19 2.87 2.55 5.39 5.53 9.39 6.26 6.59 1.24 12.61-.92 18.53-3.57 2.05-.95 3.77-2.2 4.31-4.52.01-1.94-2.18-3.08-3.43-4.31-5.68-4.68-9.01-11.41-10.31-18.57-1.43-9.46.26-18.64 3.42-27.56 5.53-15.43 15.4-29.43 27.62-40.3 12.23-10.85 27.58-17.05 43.68-19.26-4.17 7.89-7 16.02-6.09 25.1.52 3.93 1.11 8.57 3.28 11.98 1.61 1.53 3.79 3.88 6.12 2.21 3.04-9.99 8.95-18.47 16.15-25.92 14.09-13.83 32.37-22.11 51.77-25.16 11.39-1.64 22.51-2.1 33.98-2.41 23.39-.99 45.88-4.15 67.14-14.51 4.54-2.22 8.45-5.27 12.67-7.99Z" fill="rgba(86, 35, 6, 1)"/><path d="M699.75 472.19c2.29 3.51 3.87 7.52 5.66 11.31.84 2.24 2.29 4.44.8 6.75-1.17.48-2.24.64-3.4.03-1.9-2.6-2.85-5.96-4.27-8.85-1.46-3.54-3.75-6.02-3.23-10.08 1.49-.01 3.5-.75 4.44.84Z" fill="#000"/></g></g></svg>