<svg xmlns:dc="http://purl.org/dc/elements/1.1/" xmlns:cc="http://creativecommons.org/ns#" xmlns:rdf="http://www.w3.org/1999/02/22-rdf-syntax-ns#" xmlns:svg="http://www.w3.org/2000/svg" xmlns="http://www.w3.org/2000/svg" viewBox="0 0 762 762" fill="none"><metadata><rdf:RDF><cc:Work><dc:format>image/svg+xml</dc:format><dc:type rdf:resource="http://purl.org/dc/dcmitype/StillImage"/><dc:title>Adventurer</dc:title><dc:creator><cc:Agent><dc:title>Lisa Wischofsky</dc:title></cc:Agent></dc:creator><dc:source>https://www.instagram.com/lischis_adventures/</dc:source><cc:license rdf:resource="https://creativecommons.org/licenses/by/4.0/"/></cc:Work><cc:License rdf:about="https://creativecommons.org/licenses/by/4.0/"><cc:permits rdf:resource="https://creativecommons.org/ns#Reproduction"/><cc:permits rdf:resource="https://creativecommons.org/ns#Distribution"/><cc:permits rdf:resource="https://creativecommons.org/ns#DerivativeWorks"/><cc:requires rdf:resource="https://creativecommons.org/ns#Notice"/><cc:requires rdf:resource="https://creativecommons.org/ns#Attribution"/></cc:License></rdf:RDF></metadata><mask id="avatarsRadiusMask"><rect width="762" height="762" rx="0" ry="0" x="0" y="0" fill="#fff"/></mask><g mask="url(#avatarsRadiusMask)"><path d="M396.01 164.85c37.82 4.9 74.21 19.64 104.8 42.39 6.15 4.84 12.48 9.33 18.02 14.92 23.77 21.98 42.73 49.02 55.13 78.95 9.35 22.31 14.72 46.04 16.64 70.14 6.62.81 13.05 2.14 19.12 5 15.54 6.93 27.08 20.94 31.78 37.21 2.63 9.56 3.56 19.75 1.72 29.55-2.96 18.76-13.72 36.13-29.37 46.92-10.94 7.65-24.49 12.03-37.86 11.68-5.13-.05-10.04-1.6-15.13-1.79-1.85 2.17-3.23 4.84-4.76 7.25-18.66 29.62-44.57 54.51-74.64 72.4-28.1 16.73-59.9 27.16-92.46 30.32-11.08.7-21.87 2.05-32.98.74-51.69-2.3-102.07-23.44-140.15-58.43-29.03-26.55-50.84-60.83-62.54-98.39-7.09-22.85-10.62-46.78-10.07-70.71.52-40.34 12.53-80.58 33.94-114.76 19.1-30.81 45.91-56.58 77.2-74.83 29.63-17.28 63.35-27.68 97.59-29.87 14.66-1.47 29.44-.37 44.02 1.31Z" fill="#000"/><path d="M363 169.06c48.47-1.39 97.32 14.7 135.81 44.12 6.55 4.06 11.72 9.49 17.36 14.64 24.33 22.63 43.2 50.95 54.93 82.02 7.43 19.61 11.86 40.2 13.56 61.09-8.89.74-17.34 2.34-25.38 6.38-2.19 1.03-1.89 4.95.68 5.23 2.35.23 4.98-1.51 7.24-2.2 14.62-5.37 31.32-4.35 44.78 3.68 11.69 6.78 20.09 18.16 23.89 31.06 2.6 8.25 2.68 17.41 1.76 25.95-2.5 17.35-12.35 33.73-26.73 43.81-15.71 11.33-37.17 14.64-54.93 6.2-3.17-1.43-5.94-3.58-9.08-5.05-2.95-1.09-4.88 2.79-2.7 4.75 3.17 2.76 7.34 4.52 11 6.56-20.14 34.15-49.45 62.7-84.41 81.47-30.2 16.31-64.44 25.53-98.78 26.15-27.63.72-55.33-4.04-81.21-13.72-30.32-11.24-57.84-29.43-80.37-52.6-22.67-23.37-39.92-51.88-50.2-82.77-14.96-44.64-14.91-94.01.27-138.59 11.05-33.06 30.28-63.21 55.37-87.39 29.67-28.73 67.65-48.54 108.13-56.67 12.8-2.52 25.94-4.24 39.01-4.12Z" fill="rgba(242, 211, 177, 1)"/><path d="M605.03 404.4c2.63-.1 3.44 3.8 1.36 4.98-3.69 1.83-7.82 2.77-11.64 4.35-5.82 2.04-11.28 4.76-16.68 7.72 4.29 2.34 8.86 4.74 12.71 7.76 2.58 2.09 4.85 4.35 5.33 7.8-.26 3.59-2.73 6.55-5.45 8.69-5.86 4.66-13.92 7.18-20.79 10.26-1.75.62-4.43 1.99-5.59-.26-1.02-1.74-.06-3.11 1.57-3.87 6.65-3.3 14.86-5.62 20.79-10.16 1.37-1.14 3.39-2.74 3.61-4.62-4.07-5.63-12.42-8.59-18.23-12.09-2.34-1.72-2.29-4.24-.16-6.13 7.27-5.64 16.98-9.26 25.57-12.38 2.42-.83 5.03-1.95 7.6-2.05Z" fill="#000"/><g transform="translate(-161 -83)"><path d="M550.27 424.38c11.73-1.17 23.8.88 34.46 5.92 11.27 5.3 20.98 13.91 27.52 24.52 8.52 13.52 11.81 30.47 8.78 46.18-2.62 15.25-11.05 29.23-23.03 38.97-16.48 13.6-39.38 18.04-59.81 11.9-16.14-4.8-30.17-16.01-38.31-30.76-7.42-12.96-9.7-28.23-7.33-42.9 2.28-13.33 8.74-25.78 18.4-35.26 10.57-10.48 24.49-17.09 39.32-18.57Z" fill="#000"/><path d="M549.23 430.27c9.32-.98 18.71-.35 27.55 2.92 14.2 5.05 26.25 15.47 33.08 28.93 5.89 11.3 7.76 24.3 5.81 36.86-2.19 12.58-8.23 24.38-17.49 33.21-9.48 9.35-22.52 15.1-35.71 16.47-15.36 1.46-31.09-3.31-43.06-13.03-9.46-7.5-15.92-17.77-19.8-29.11-5.26-18.02-1.64-38.17 9.74-53.13 9.47-12.69 24.19-21.15 39.88-23.12Z" fill="#fff"/><path d="M521.23 467.28c7.31-1.89 15.52.27 20.87 5.62 6.09 5.72 8.42 15.06 5.6 22.95-3.49 11.19-16.53 17.96-27.64 14.08-11.45-3.35-18.17-16.09-14.6-27.48 2.25-7.54 8.22-13.11 15.77-15.17ZM332.97 478.46c14.43.75 28.78 1.53 43.05 3.91 21.13 3.42 42.86 8.97 62.12 18.47 2.85 1.6 2.45 3.29 1.6 6.06-2.42.05-4.41-.24-6.71-1.01-11.15-3.38-22.56-5.25-34.03-7.16-10.45-1.44-20.56-3.19-31-3.72-10.97-1.1-21.89-.72-32.98-.66-1.97-.1-5.02.62-6.6-.75-.76-2.14.78-4.69 1.32-6.78-.94-1.57-3.08-3.45-2.4-5.43.87-2.4 3.35-2.93 5.63-2.93Z" fill="#000"/></g><g transform="translate(-161 -83)"><g fill="#000"><path d="M613.54 401.51c1.59 1.01 1.08 2.86 1.24 4.48-.06 11.34-.05 22.7-.12 34.04.32 2.75-2.42 4.22-4.62 5-39.99 13.74-80.12 27.25-120.05 41.12-2.53.2-2.84-1.75-3.51-3.66-1.63-6-3.3-11.98-5.01-17.95.97 5.75.98 11.66 1.36 17.47-.02 1.44.45 3.94-.99 4.85-1.95 1.4-4.07.13-4.6-2.03-3.64-12.73-7.02-25.58-10.66-38.32-.39-1.83-.65-3.91 1.36-4.88 2.11-.49 3.41.47 4 2.44 1.27 4.55 2.55 9.11 3.68 13.7-.73-5.24-.94-10.49-1.18-15.77-.01-1.27-.14-3.73 1.66-3.79 1.47-.26 2.98-.38 4.43-.72 41.23-11.74 82.37-23.44 123.6-35.22 3.27-.87 6.02-2.08 9.41-.76ZM324 433.87c13.64 1.39 27.36 1.44 41 2.58 21.04 1.05 42.11 2.67 63.14 3.42 7.79.78 15.61 1.12 23.44 1.68 2.77 2.19 1.08 8.08 1.91 11.33.56-2.97.18-6.91 1.92-9.46 2.15-1.8 5.08-.17 4.76 2.56-2.36 14.03-4.77 28.14-7.02 42.18-.8 2.93-4.48 2.56-5.29-.15-.27-4.92-.21-9.89-.28-14.83-1.03 4.29-1.47 8.69-2.47 12.98-.43 1.64-1.17 2.84-3.1 2.4-39.48-6.89-79.4-14.23-118.87-21.29-1.88-.2-2.83-1.46-3.09-3.26-1.45-7.98-2.5-16.04-4.12-23.99-.23-1.72-.74-3.14.56-4.58 2.12-2.29 4.72-1.68 7.51-1.57Z"/></g></g><g transform="translate(-161 -83)"><path d="M462.23 552.76c5.89 1.34 11.98 4.52 15.69 9.38 1.25 2.25.03 5.01-2.77 4.63-2.26-1.24-3.96-3.38-6.13-4.8-4.31-2.87-9.86-4.48-15.03-3.68-2.57.46-5.36 1.6-6.83 3.87-1.53 2.09-1.29 4.76-.4 7.05 1.72 4.44 6 7.87 10.25 9.73 2.3 1.06 5.25 1.28 7.29 2.75 1.69 1.8.58 4.36-1.73 4.78-4.61 1.03-8.66 2.66-11.62 6.51-5.51 6.68-4.73 16.7 1.35 22.74 6.13 6.67 17.21 7.51 24.26 1.85 2.43-1.87 3.59-4.35 5.54-6.58 2.97-1.44 5.07 1.04 3.97 3.91-4.62 9.77-16.97 14.49-27.13 11.4-8.93-2.41-15.86-10.12-17.26-19.27-1.55-9.44 3.19-18.64 11.31-23.48-5.73-2.95-10.81-7.86-12.37-14.28-1.54-5.3.79-11.27 5.45-14.2 4.69-3.25 10.76-3.16 16.16-2.31Z" fill="#000"/></g><g transform="translate(-161 -83)"/><g transform="translate(-161 -83)"><path d="M546 236.84c51.64.59 102.7 18.25 141.84 52.31 29.53 25.5 51.1 59.87 60.38 97.84 5.48 21.86 6.56 44.45 4.27 66.83-.37 1.75-.51 5.62-2.95 5.59-4.29.23-8.51.07-12.73 1.15-11.59 2.71-22.8 8.56-31.19 17.07-1.07.88-2.1 2.18-3.65 1.76-1.58 0-2.3-2.02-2.09-3.35.33-3.05 1.49-6.04 2.14-9.04 1.63-6.66 1.85-13.22 2.48-20.01.61-6.79-.3-13.27-.9-20.01-.36-3.74-1.21-7.29-2.07-10.93-9.31-.25-18.37-2.33-26.44-7.1-15.74-8.99-27.31-24.88-35.49-40.72-9.82-19.03-15.94-39.95-20.23-60.86-29.41 12.22-59.85 20.22-91.13 25.91-33.38 5.9-67.33 9.18-101.24 8.96-23.84.16-47.78-1.74-71.25-5.99-1.86-.35-3.49-1.08-3.57-3.22 1.01-3.82 4.01-7.35 6.5-10.34 9.01-10.91 19.03-21.02 29.89-30.09 43.66-36.57 100.53-56.54 157.43-55.76Z" fill="#000"/><path d="M520.21 243.77c41.25-4.16 83.53 2.88 120.79 21.24 32.27 15.9 60.14 40.13 79.22 70.72 21.99 34.84 31.4 77.04 26.37 117.93-14.2.21-27.25 5.84-38.62 14.04 2.82-16.51 3.49-33.39-.05-49.85-.64-2.31-1.12-5.21-2.7-7.07-1.62-1.19-4.31-.73-6.23-.89-8.04.13-16.05-2.86-22.85-7.01-11.69-7.29-20.65-18.64-27.59-30.37-10.76-18.47-17.68-39.72-22.26-60.53-.79-3.27-1.12-6.77-2.27-9.93-.87-1.45-2.45-1.83-3.99-1.22-3.66 1.23-7.15 2.97-10.76 4.32-26.42 10.34-54.42 17.39-82.3 22.45-26.79 4.85-53.78 7.59-80.97 8.7-14.65.16-29.37.42-44-.44-14.27-.89-28.43-2.35-42.52-4.81 38.43-49.69 98.38-81.4 160.73-87.28Z" fill="rgba(133, 194, 198, 1)"/><path d="M718.59 474.55c-.04 1.07.35 2.71-.44 3.56-2.25 2.41-5.16 4.22-7.63 6.41-2.64 2.15-4.81 4.86-7.53 6.88-2.73.46-4.07-1.91-2.73-4.12 2.72-3.78 6.72-6.77 10.22-9.81 2.68-1.91 4.52-4.7 8.11-2.92Z" fill="#000"/></g></g></svg>